<?xml version="1.0" encoding="UTF-8"?>
<svg id="Cromy" data-name="Cromy" xmlns:xlink="http://www.w3.org/1999/xlink" xmlns="http://www.w3.org/2000/svg" viewBox="0 0 765.64 290.9">
  <title>cromy-logo</title>
  <g>
    <g>
      <g>
        <path d="M631.31,381.4c-3.69-20.33-7.08-40.71-11.08-61-1.9-9.61-8.26-15.72-18-17.55-9.06-1.71-16.59,1.85-21.36,9.32s-8.35,15.73-12.26,23.74c-4.24,8.72-8.26,17.56-12.81,27.27a38.4,38.4,0,0,1-2.41-3.57c-7.25-14.7-14.61-29.35-21.65-44.15a22,22,0,0,0-34.37-7c-6,5.31-7.64,12.34-8.88,19.58-3.61,21-6.69,42.14-10.69,63.08C473.93,411.47,464.49,429,448,441.8c-20.85,16.28-44.71,21.58-70.73,17.81A96,96,0,0,1,334,442.27c-15.66-11.39-25.08-27-29.59-45.67-1.69-7-2.87-13.7,2.36-20.42,3.21-4.13,5-9.77,6.16-15,6.06-27.57-13.77-53.69-39.68-58.63-15.78-3-31.6-1.83-47.38-.5-3.42.29-6.95,2-10,3.8-7,4.24-9,11.21-9.05,18.93q0,47,.05,94.09a23.16,23.16,0,0,0,1.22,7.44c3.56,10.16,14.5,16.12,25.76,14.29,10.95-1.79,18.52-10.12,18.67-21.16.21-14.53.07-29.07.07-43.6,0-7.6-.24-15.21.06-22.8.36-9.16,2.21-10.3,11.42-8a7.45,7.45,0,0,1,4.15,12.2,11.26,11.26,0,0,1-4.35,3.34c-4.15,1.67-6,4.47-5.8,8.94.16,3.6-.24,7.21-.07,10.81.4,8.37.1,16.91,1.66,25.07,5.59,29.16,21.1,52.44,44.28,70.55,25.29,19.75,54.15,30.09,86.25,30.16,26.7.05,51.47-7.45,74.15-21.69,26.74-16.79,45.28-40,55.13-70.13,1-3.22,2.13-6.42,3.52-10.56,1,1.94,1.62,2.91,2,4,2.78,7.08,5.48,14.18,8.26,21.25,3.87,9.82,11.19,15.22,21.62,15.61,10,.38,16.93-5,21.14-13.72,3.23-6.72,5.93-13.7,8.92-20.54.75-1.72,1.72-3.35,3.16-6.12.78,2.91,1.29,4.53,1.65,6.18,1.16,5.35,2.42,10.67,3.36,16.05C595.36,439.22,605.48,446,619,444c13-1.93,21.5-13.2,19.2-25.25Q634.67,400.09,631.31,381.4Z" transform="translate(-17.18 -254.91)" style="fill: #eb3136;stroke: #eb3136;stroke-miterlimit: 10;stroke-width: 10px"/>
        <path d="M390.48,444.76c39.86-.32,74.9-33.83,72.92-77.47-1.69-37.15-31.91-69.94-72.93-70.15-41.61-.21-74.61,33-74.26,73.55C315.67,411.89,350.11,445.08,390.48,444.76Zm-.17-101.88A27.9,27.9,0,0,1,418,371.12a28.34,28.34,0,0,1-28.5,28c-15.55-.09-27.82-12.8-27.68-28.65S374.25,342.72,390.31,342.88Z" transform="translate(-17.18 -254.91)" style="fill: #eb3136;stroke: #eb3136;stroke-miterlimit: 10;stroke-width: 10px"/>
        <path d="M117.21,346c11.34-8.48,27.57-6.08,37,4.94a42.73,42.73,0,0,0,11.56,9.52c8.49,4.71,19.06,2.16,26.19-5.44,6.28-6.71,7.85-16,3.22-23.62-13.16-21.58-32.83-33.57-57.68-35.05-23-1.37-43.11,6.91-58.7,24.57-16.37,18.52-22.18,40.18-16.2,64C70.34,415.8,99.18,443,135.25,441.7c23.08.63,41.09-9.36,55.45-26.76,4.13-5,7.38-10.65,7-17.43-.64-10.36-7.37-18.8-16.53-21.37a24,24,0,0,0-26,9.78c-4.84,7.24-11.52,10.38-19.85,10.68a26.52,26.52,0,0,1-26.55-17.91C104.58,366.7,108.17,352.76,117.21,346Z" transform="translate(-17.18 -254.91)" style="fill: #eb3136;stroke: #eb3136;stroke-miterlimit: 10;stroke-width: 10px"/>
        <path d="M738.32,306.5a22.54,22.54,0,0,0-31.52,5.25c-4,5.49-7.91,11.06-11.89,16.56-2,2.76-4,5.46-6.5,8.75-1.44-2-2.42-3.36-3.41-4.71-5.42-7.42-10.63-15-16.34-22.21-5.46-6.89-17.37-9.19-25.24-5.44-13.57,6.48-17.78,22.43-9.09,35.17,9.31,13.65,18.91,27.1,28.14,40.79a16.17,16.17,0,0,1,2.63,8.07c.3,10.27.1,20.54.14,30.82.06,12.62,10.42,23.52,22.61,23.38,13.41-.15,23.7-11,23.44-23.34-.23-10.27-.25-20.55.07-30.81a17.69,17.69,0,0,1,2.65-8.85c9.42-14.21,19.13-28.23,28.82-42.26C750.33,326.81,748.49,313.7,738.32,306.5Z" transform="translate(-17.18 -254.91)" style="fill: #eb3136;stroke: #eb3136;stroke-miterlimit: 10;stroke-width: 10px"/>
      </g>
      <g>
        <path d="M773.17,297.81c-14.46-32.59-59.23-41.58-82.92-21.91-1.69,1.41-2.9,1.27-4.52,0-18.73-14.36-38.66-14.78-59.35-4.82-2.32,1.11-4.06.85-6.34-.08-5.14-2.09-10.34-4.56-15.75-5.38C586.91,263,572.15,269.4,559,280.29c-4.73,3.93-4.65,4-9.36-.24-13.53-12.24-29.22-18-47.43-14.75-16.74,3-29.81,12.36-40.58,25.17-3.68,4.37-3.63,4.45-8,1A107,107,0,0,0,405,269.56c-29-5-55.26,1.7-78.61,19.56-2.66,2-4.25,2.1-6.6-.44A62.39,62.39,0,0,0,284.46,269c-18.73-3.42-37.67-3.64-56.57-2.35-10.92.74-21.72,3.07-31.34,8.64-3.41,2-5.76,1.8-9,0-21.53-12-44.5-17.65-69.17-14.47-30.42,3.92-55,18.4-74,42.32C28.08,323.68,23,347.92,22.18,370.82c.5,29.8,9.79,53.46,28.55,73.13,15.32,16.06,34.2,26.15,55.86,30.73,27.12,5.74,53.28,3.42,77.6-11,2.73-1.62,4.59-1.51,7.05.57,9.58,8.07,20.61,13,33.25,12.64A110,110,0,0,0,245.35,474c3.83-.84,6,0,8.58,2.74,8,8.56,15.79,17.38,24.63,25a157.32,157.32,0,0,0,80.94,37.18c30.74,4.54,60.61.86,89.56-10.06,28.77-10.86,54-27.06,73.66-51.08,1.68-2,3.32-1.95,5.61-1.38,7.22,1.79,14.42,4.08,21.77,4.76,12.44,1.16,24.09-1.73,34-9.88,1.67-1.37,3.36-2.36,5.76-1,19.89,11.26,39.61,10.53,59.24-.85a6.18,6.18,0,0,1,5,.08c12.21,5.87,24.89,9.55,38.56,8.71,21.23-1.3,36.38-11.79,45.24-31,7-15.13,6.75-31,3.75-47a9.71,9.71,0,0,1,1.39-6.59c4-5.8,8.35-11.39,12.81-16.85,9.29-11.37,16.94-23.48,20-38.17C778.69,324.67,779,311,773.17,297.81Zm-382.6-.67c41,.21,71.23,32.94,72.92,70.05,2,43.56-33.06,77-72.92,77.35-40.37.32-74.81-32.83-74.27-74C316,330.1,349,296.93,390.57,297.14ZM108.86,378.57a26.53,26.53,0,0,0,26.55,17.88c8.33-.3,15-3.43,19.85-10.67a24,24,0,0,1,26-9.76c9.16,2.57,15.89,11,16.53,21.33.42,6.77-2.83,12.42-7,17.42-14.36,17.36-32.37,27.34-55.44,26.71-36.08,1.27-64.91-25.86-72.66-56.7-6-23.77-.17-45.39,16.2-63.89,15.59-17.63,35.67-25.9,58.7-24.53,24.85,1.48,44.53,13.45,57.68,35,4.63,7.58,3.06,16.9-3.22,23.59-7.13,7.59-17.69,10.13-26.19,5.44a42.88,42.88,0,0,1-11.56-9.51c-9.43-11-25.66-13.4-37-4.93C108.26,352.68,104.67,366.6,108.86,378.57Zm510.26,65.21c-13.55,2-23.66-4.78-25.91-17.56-.94-5.38-2.2-10.69-3.36-16-.36-1.65-.87-3.26-1.65-6.17-1.44,2.77-2.41,4.39-3.16,6.11-3,6.83-5.69,13.8-8.92,20.51-4.21,8.75-11.14,14.07-21.14,13.7-10.43-.39-17.75-5.79-21.62-15.59-2.78-7.06-5.48-14.15-8.26-21.21-.41-1.06-1-2-2-4-1.38,4.14-2.47,7.34-3.52,10.55-9.85,30.06-28.39,53.26-55.13,70-22.68,14.22-47.45,21.71-74.15,21.65-32.09-.07-61-10.39-86.25-30.11-23.18-18.08-38.69-41.33-44.27-70.44-1.57-8.16-1.27-16.68-1.67-25-.17-3.59.23-7.2.07-10.79-.2-4.47,1.65-7.26,5.8-8.92a11.29,11.29,0,0,0,4.35-3.35c3.69-4.61,1.52-10.74-4.15-12.17-9.21-2.33-11.06-1.2-11.42,8-.3,7.57-.06,15.17-.06,22.76,0,14.51.14,29-.07,43.53-.15,11-7.72,19.34-18.66,21.13-11.27,1.83-22.21-4.13-25.77-14.27a23.1,23.1,0,0,1-1.22-7.43q-.12-47,0-93.94c0-7.71,2-14.67,9-18.9,3-1.82,6.54-3.51,10-3.79,15.78-1.33,31.6-2.52,47.38.49,25.91,4.93,45.74,31,39.68,58.54-1.15,5.24-3,10.88-6.16,15-5.22,6.71-4.05,13.4-2.36,20.39,4.52,18.64,13.93,34.23,29.59,45.6a95.91,95.91,0,0,0,43.35,17.31c26,3.76,49.88-1.53,70.73-17.78,16.46-12.82,25.9-30.29,29.77-50.53,4-20.91,7.08-42,10.69-63,1.24-7.24,2.88-14.25,8.88-19.56a22,22,0,0,1,34.37,6.94c7,14.78,14.4,29.41,21.65,44.09a40.1,40.1,0,0,0,2.41,3.56c4.55-9.7,8.57-18.52,12.82-27.23,3.9-8,7.48-16.24,12.26-23.71s12.29-11,21.35-9.3c9.74,1.82,16.1,7.93,18,17.52,4,20.24,7.39,40.6,11.08,60.89q3.39,18.66,6.92,37.3C640.62,430.59,632.15,441.85,619.12,443.78Zm123.8-106.17c-9.69,14-19.4,28-28.82,42.19a17.78,17.78,0,0,0-2.65,8.84c-.32,10.24-.3,20.51-.07,30.76.27,12.31-10,23.16-23.44,23.31-12.19.13-22.55-10.74-22.61-23.35,0-10.26.17-20.52-.14-30.77a15.94,15.94,0,0,0-2.63-8.06c-9.23-13.67-18.83-27.1-28.13-40.72-8.7-12.73-4.49-28.65,9.08-35.12,7.87-3.75,19.79-1.45,25.25,5.43,5.7,7.18,10.91,14.76,16.33,22.17L688.5,337c2.45-3.28,4.51-6,6.5-8.73,4-5.5,7.88-11.06,11.89-16.54a22.57,22.57,0,0,1,31.52-5.25C748.58,313.68,750.42,326.77,742.92,337.61Z" transform="translate(-17.18 -254.91)" style="fill: #fff112;stroke: #eb3136;stroke-miterlimit: 10;stroke-width: 10px"/>
        <path d="M389.55,399a28.33,28.33,0,0,0,28.5-28,27.88,27.88,0,0,0-27.65-28.2c-16.06-.16-28.38,11.74-28.52,27.55S374,398.88,389.55,399Z" transform="translate(-17.18 -254.91)" style="fill: #fff112;stroke: #eb3136;stroke-miterlimit: 10;stroke-width: 10px"/>
      </g>
    </g>
    <g>
      <g>
        <path d="M631.31,380.68c-3.69-20.33-7.08-40.71-11.08-61-1.9-9.61-8.26-15.72-18-17.55-9.06-1.7-16.59,1.85-21.36,9.32s-8.35,15.73-12.26,23.74c-4.24,8.72-8.26,17.56-12.81,27.27a38.4,38.4,0,0,1-2.41-3.57c-7.25-14.7-14.61-29.35-21.65-44.15a22,22,0,0,0-34.37-6.94c-6,5.31-7.64,12.33-8.88,19.58-3.61,21-6.69,42.13-10.69,63.08-3.87,20.27-13.31,37.76-29.77,50.6-20.85,16.28-44.71,21.58-70.73,17.81A96,96,0,0,1,334,441.55c-15.66-11.39-25.08-27-29.59-45.67-1.69-7-2.87-13.7,2.36-20.42,3.21-4.13,5-9.77,6.16-15,6.06-27.57-13.77-53.69-39.68-58.63-15.78-3-31.6-1.82-47.38-.49-3.42.29-6.95,2-10,3.79-7,4.24-9,11.21-9.05,18.93q0,47.06.05,94.09a23.16,23.16,0,0,0,1.22,7.44c3.56,10.16,14.5,16.13,25.76,14.29,10.95-1.79,18.52-10.12,18.67-21.16.21-14.53.07-29.07.07-43.6,0-7.6-.24-15.21.06-22.79.36-9.17,2.21-10.31,11.42-8a7.44,7.44,0,0,1,4.15,12.19,11.39,11.39,0,0,1-4.35,3.35c-4.15,1.67-6,4.46-5.8,8.93.16,3.6-.24,7.22-.07,10.81.4,8.37.1,16.91,1.66,25.07,5.59,29.17,21.1,52.44,44.28,70.55,25.29,19.75,54.15,30.09,86.25,30.16,26.7.05,51.47-7.45,74.15-21.69,26.74-16.79,45.28-40,55.13-70.13,1-3.21,2.13-6.42,3.52-10.56,1,1.94,1.62,2.91,2,4,2.78,7.07,5.48,14.17,8.26,21.24,3.87,9.82,11.19,15.22,21.62,15.61,10,.38,16.93-5,21.14-13.72,3.23-6.72,5.93-13.7,8.92-20.54.75-1.72,1.72-3.34,3.16-6.12.78,2.92,1.29,4.53,1.65,6.19,1.16,5.34,2.42,10.66,3.36,16.05,2.24,12.8,12.36,19.6,25.91,17.59,13-1.93,21.5-13.21,19.2-25.26Q634.67,399.39,631.31,380.68Z" transform="translate(-17.18 -254.91)" style="fill: #eb3136"/>
        <path d="M390.48,444c39.86-.32,74.9-33.83,72.92-77.47-1.69-37.15-31.91-69.94-72.93-70.14-41.61-.21-74.61,33-74.26,73.54C315.67,411.17,350.11,444.37,390.48,444Zm-.17-101.88A27.9,27.9,0,0,1,418,370.4a28.34,28.34,0,0,1-28.5,28c-15.55-.09-27.82-12.79-27.68-28.64S374.25,342,390.31,342.16Z" transform="translate(-17.18 -254.91)" style="fill: #eb3136"/>
        <path d="M117.21,345.29c11.34-8.48,27.57-6.08,37,4.94a42.54,42.54,0,0,0,11.56,9.52c8.49,4.71,19.06,2.16,26.19-5.44,6.28-6.7,7.85-16,3.22-23.62-13.16-21.57-32.83-33.56-57.68-35.05-23-1.37-43.11,6.91-58.7,24.57-16.37,18.52-22.18,40.18-16.2,64,7.74,30.88,36.58,58.05,72.65,56.78,23.08.64,41.09-9.36,55.45-26.75,4.13-5,7.38-10.66,7-17.44-.64-10.35-7.37-18.8-16.53-21.37a24,24,0,0,0-26,9.78c-4.84,7.25-11.52,10.38-19.85,10.68A26.53,26.53,0,0,1,108.77,378C104.58,366,108.17,352.05,117.21,345.29Z" transform="translate(-17.18 -254.91)" style="fill: #eb3136"/>
        <path d="M738.32,305.78A22.55,22.55,0,0,0,706.8,311c-4,5.48-7.91,11-11.89,16.56-2,2.75-4,5.46-6.5,8.74L685,331.63c-5.42-7.42-10.63-15-16.34-22.21-5.46-6.89-17.37-9.19-25.24-5.43-13.57,6.47-17.78,22.42-9.09,35.17,9.31,13.64,18.91,27.09,28.14,40.78A16.17,16.17,0,0,1,665.1,388c.3,10.27.1,20.55.14,30.82.06,12.62,10.42,23.52,22.61,23.38,13.41-.14,23.7-11,23.44-23.34-.23-10.27-.25-20.55.07-30.81a17.69,17.69,0,0,1,2.65-8.85C723.43,365,733.14,351,742.83,337,750.33,326.1,748.49,313,738.32,305.78Z" transform="translate(-17.18 -254.91)" style="fill: #eb3136"/>
      </g>
      <g>
        <path d="M773.17,297.09c-14.46-32.59-59.23-41.58-82.92-21.91-1.69,1.41-2.9,1.27-4.52,0-18.73-14.37-38.66-14.78-59.35-4.83-2.32,1.12-4.06.85-6.34-.08-5.14-2.09-10.34-4.56-15.75-5.38-17.38-2.65-32.14,3.75-45.28,14.64-4.73,3.93-4.65,4-9.36-.24-13.53-12.23-29.22-18-47.43-14.74-16.74,3-29.81,12.35-40.58,25.16-3.68,4.38-3.63,4.45-8,1A106.9,106.9,0,0,0,405,268.84c-29-5-55.26,1.7-78.61,19.56-2.66,2-4.25,2.1-6.6-.44a62.45,62.45,0,0,0-35.3-19.71c-18.73-3.42-37.67-3.64-56.57-2.35-10.92.74-21.72,3.07-31.34,8.64-3.41,2-5.76,1.8-9,0-21.53-12-44.5-17.65-69.17-14.47-30.42,3.92-55,18.4-74,42.32C28.08,323,23,347.2,22.18,370.1c.5,29.8,9.79,53.46,28.55,73.13,15.32,16.06,34.2,26.15,55.86,30.73,27.12,5.74,53.28,3.43,77.6-11,2.73-1.61,4.59-1.5,7.05.58,9.58,8.06,20.61,13,33.25,12.63a110,110,0,0,0,20.86-2.93c3.83-.84,6,0,8.58,2.75,8,8.55,15.79,17.38,24.63,25a157.32,157.32,0,0,0,80.94,37.18c30.74,4.54,60.61.86,89.56-10.06,28.77-10.86,54-27.06,73.66-51.08,1.68-2.05,3.32-1.95,5.61-1.38,7.22,1.79,14.42,4.08,21.77,4.77,12.44,1.15,24.09-1.73,34-9.89,1.67-1.37,3.36-2.36,5.76-1,19.89,11.26,39.61,10.53,59.24-.85a6.18,6.18,0,0,1,5,.08c12.21,5.87,24.89,9.55,38.56,8.71,21.23-1.3,36.38-11.79,45.24-31,7-15.12,6.75-31,3.75-47a9.71,9.71,0,0,1,1.39-6.59c4-5.8,8.35-11.38,12.81-16.85,9.29-11.36,16.94-23.48,20-38.17C778.69,324,779,310.26,773.17,297.09Zm-382.6-.67c41,.21,71.23,32.95,72.92,70.05,2,43.57-33.06,77-72.92,77.35-40.37.32-74.81-32.82-74.27-74C316,329.38,349,296.21,390.57,296.42ZM108.86,377.85a26.53,26.53,0,0,0,26.55,17.88c8.33-.3,15-3.43,19.85-10.67a24,24,0,0,1,26-9.76c9.16,2.57,15.89,11,16.53,21.33.42,6.78-2.83,12.42-7,17.42-14.36,17.37-32.37,27.35-55.44,26.71C99.27,442,70.44,414.9,62.69,384.06c-6-23.76-.17-45.39,16.2-63.89,15.59-17.63,35.67-25.9,58.7-24.53,24.85,1.48,44.53,13.45,57.68,35,4.63,7.58,3.06,16.89-3.22,23.58-7.13,7.59-17.69,10.13-26.19,5.44a42.69,42.69,0,0,1-11.56-9.51c-9.43-11-25.66-13.4-37-4.93C108.26,352,104.67,365.88,108.86,377.85Zm510.26,65.21c-13.55,2-23.66-4.77-25.91-17.56-.94-5.37-2.2-10.69-3.36-16-.36-1.64-.87-3.26-1.65-6.17-1.44,2.77-2.41,4.39-3.16,6.11-3,6.83-5.69,13.8-8.92,20.51C571.91,438.67,565,444,555,443.62c-10.43-.39-17.75-5.79-21.62-15.59-2.78-7.06-5.48-14.15-8.26-21.21-.41-1.05-1-2-2-4-1.38,4.13-2.47,7.33-3.52,10.55-9.85,30.06-28.39,53.25-55.13,70-22.68,14.22-47.45,21.71-74.15,21.65-32.09-.07-61-10.39-86.25-30.11-23.18-18.08-38.69-41.32-44.27-70.44-1.57-8.15-1.27-16.68-1.67-25-.17-3.59.23-7.2.07-10.79-.2-4.46,1.65-7.25,5.8-8.92a11.36,11.36,0,0,0,4.35-3.34c3.69-4.61,1.52-10.74-4.15-12.18-9.21-2.33-11.06-1.19-11.42,8-.3,7.58-.06,15.17-.06,22.76,0,14.51.14,29-.07,43.53-.15,11-7.72,19.35-18.66,21.13-11.27,1.84-22.21-4.12-25.77-14.27A23,23,0,0,1,207,418q-.12-47,0-93.95c0-7.71,2-14.67,9-18.9,3-1.82,6.54-3.5,10-3.79,15.78-1.33,31.6-2.52,47.38.49,25.91,4.93,45.74,31,39.68,58.55-1.15,5.23-3,10.87-6.16,15-5.22,6.71-4.05,13.4-2.36,20.39C309,414.37,318.38,430,334,441.33a95.91,95.91,0,0,0,43.35,17.31c26,3.77,49.88-1.52,70.73-17.77,16.46-12.83,25.9-30.29,29.77-50.54,4-20.91,7.08-42,10.69-63,1.24-7.24,2.88-14.25,8.88-19.55a22,22,0,0,1,34.37,6.93c7,14.78,14.4,29.41,21.65,44.09a40.1,40.1,0,0,0,2.41,3.56c4.55-9.7,8.57-18.52,12.82-27.23,3.9-8,7.48-16.24,12.26-23.7s12.29-11,21.35-9.31c9.74,1.83,16.1,7.93,18,17.53,4,20.23,7.39,40.59,11.08,60.88q3.39,18.68,6.92,37.3C640.62,429.88,632.15,441.14,619.12,443.06Zm123.8-106.17c-9.69,14-19.4,28-28.82,42.2a17.71,17.71,0,0,0-2.65,8.83c-.32,10.25-.3,20.51-.07,30.77.27,12.31-10,23.16-23.44,23.3-12.19.14-22.55-10.74-22.61-23.35,0-10.25.17-20.52-.14-30.76a15.94,15.94,0,0,0-2.63-8.07c-9.23-13.67-18.83-27.1-28.13-40.72-8.7-12.73-4.49-28.65,9.08-35.12,7.87-3.75,19.79-1.45,25.25,5.43,5.7,7.18,10.91,14.76,16.33,22.17l3.41,4.71c2.45-3.28,4.51-6,6.5-8.73,4-5.5,7.88-11.06,11.89-16.54a22.56,22.56,0,0,1,31.52-5.24C748.58,313,750.42,326.05,742.92,336.89Z" transform="translate(-17.18 -254.91)" style="fill: #fff112"/>
        <path d="M389.55,398.25a28.33,28.33,0,0,0,28.5-28,27.88,27.88,0,0,0-27.65-28.2c-16.06-.15-28.38,11.75-28.52,27.55S374,398.16,389.55,398.25Z" transform="translate(-17.18 -254.91)" style="fill: #fff112"/>
      </g>
    </g>
  </g>
</svg>
